<svg width="461" height="313" viewBox="0 0 461 313" fill="none" xmlns="http://www.w3.org/2000/svg">
<path d="M165.396 171.719C164.798 172.225 164.016 172.639 163.05 172.961C162.13 173.237 161.049 173.375 159.807 173.375C158.151 173.375 156.771 173.168 155.667 172.754C154.609 172.34 153.919 171.627 153.597 170.615C152.309 166.567 151.251 163.301 150.423 160.817C149.595 158.287 148.951 156.079 148.491 154.193H148.146C148.008 156.907 147.893 159.391 147.801 161.645C147.755 163.853 147.709 166.015 147.663 168.131C147.663 170.247 147.617 172.386 147.525 174.548C147.479 176.71 147.387 179.102 147.249 181.724C146.651 181.954 145.869 182.138 144.903 182.276C143.937 182.46 142.971 182.552 142.005 182.552C139.981 182.552 138.394 182.23 137.244 181.586C136.14 180.942 135.588 179.769 135.588 178.067L137.589 142.877C137.957 142.279 138.762 141.635 140.004 140.945C141.246 140.255 142.994 139.91 145.248 139.91C147.686 139.91 149.595 140.301 150.975 141.083C152.355 141.819 153.367 143.038 154.011 144.74C154.425 145.844 154.862 147.109 155.322 148.535C155.828 149.961 156.311 151.433 156.771 152.951C157.277 154.469 157.76 155.987 158.22 157.505C158.68 158.977 159.094 160.311 159.462 161.507H159.807C160.911 157.643 162.015 153.917 163.119 150.329C164.223 146.695 165.235 143.659 166.155 141.221C166.845 140.853 167.719 140.554 168.777 140.324C169.881 140.048 171.1 139.91 172.434 139.91C174.688 139.91 176.528 140.255 177.954 140.945C179.38 141.589 180.208 142.532 180.438 143.774C180.622 144.694 180.806 146.12 180.99 148.052C181.22 149.938 181.45 152.077 181.68 154.469C181.91 156.861 182.14 159.391 182.37 162.059C182.6 164.727 182.807 167.303 182.991 169.787C183.221 172.225 183.405 174.479 183.543 176.549C183.681 178.573 183.773 180.137 183.819 181.241C183.037 181.701 182.209 182.023 181.335 182.207C180.507 182.437 179.426 182.552 178.092 182.552C176.344 182.552 174.872 182.253 173.676 181.655C172.48 181.057 171.836 179.884 171.744 178.136C171.468 173.122 171.284 168.614 171.192 164.612C171.146 160.61 171.054 157.252 170.916 154.538H170.571C170.111 156.332 169.444 158.586 168.57 161.3C167.696 164.014 166.638 167.487 165.396 171.719ZM214.544 181.724C214.038 181.862 213.233 182 212.129 182.138C211.071 182.276 210.013 182.345 208.955 182.345C207.897 182.345 206.954 182.253 206.126 182.069C205.344 181.931 204.677 181.655 204.125 181.241C203.573 180.827 203.159 180.252 202.883 179.516C202.607 178.78 202.469 177.814 202.469 176.618V140.186C202.975 140.094 203.78 139.979 204.884 139.841C205.988 139.657 207.046 139.565 208.058 139.565C209.116 139.565 210.036 139.657 210.818 139.841C211.646 139.979 212.336 140.255 212.888 140.669C213.44 141.083 213.854 141.658 214.13 142.394C214.406 143.13 214.544 144.096 214.544 145.292V181.724ZM246.361 165.371C244.337 164.681 242.497 163.991 240.841 163.301C239.185 162.565 237.759 161.691 236.563 160.679C235.367 159.667 234.424 158.471 233.734 157.091C233.09 155.665 232.768 153.94 232.768 151.916C232.768 148.006 234.263 144.878 237.253 142.532C240.289 140.186 244.521 139.013 249.949 139.013C251.927 139.013 253.767 139.151 255.469 139.427C257.171 139.703 258.62 140.14 259.816 140.738C261.058 141.29 262.024 142.026 262.714 142.946C263.404 143.82 263.749 144.855 263.749 146.051C263.749 147.247 263.473 148.282 262.921 149.156C262.369 149.984 261.702 150.697 260.92 151.295C259.908 150.651 258.551 150.099 256.849 149.639C255.147 149.133 253.284 148.88 251.26 148.88C249.19 148.88 247.672 149.179 246.706 149.777C245.74 150.329 245.257 151.042 245.257 151.916C245.257 152.606 245.556 153.181 246.154 153.641C246.752 154.055 247.649 154.446 248.845 154.814L252.502 155.987C256.826 157.367 260.138 159.138 262.438 161.3C264.784 163.416 265.957 166.314 265.957 169.994C265.957 173.904 264.416 177.078 261.334 179.516C258.252 181.908 253.721 183.104 247.741 183.104C245.625 183.104 243.647 182.92 241.807 182.552C240.013 182.23 238.426 181.747 237.046 181.103C235.712 180.413 234.654 179.585 233.872 178.619C233.136 177.607 232.768 176.457 232.768 175.169C232.768 173.835 233.159 172.708 233.941 171.788C234.723 170.822 235.574 170.086 236.494 169.58C237.782 170.592 239.346 171.466 241.186 172.202C243.072 172.938 245.119 173.306 247.327 173.306C249.581 173.306 251.168 172.961 252.088 172.271C253.008 171.581 253.468 170.776 253.468 169.856C253.468 168.936 253.1 168.246 252.364 167.786C251.628 167.28 250.593 166.797 249.259 166.337L246.361 165.371ZM295.572 181.724C295.066 181.862 294.261 182 293.157 182.138C292.099 182.276 291.041 182.345 289.983 182.345C288.925 182.345 287.982 182.253 287.154 182.069C286.372 181.931 285.705 181.655 285.153 181.241C284.601 180.827 284.187 180.252 283.911 179.516C283.635 178.78 283.497 177.814 283.497 176.618V140.186C284.003 140.094 284.808 139.979 285.912 139.841C287.016 139.657 288.074 139.565 289.086 139.565C290.144 139.565 291.064 139.657 291.846 139.841C292.674 139.979 293.364 140.255 293.916 140.669C294.468 141.083 294.882 141.658 295.158 142.394C295.434 143.13 295.572 144.096 295.572 145.292V181.724ZM327.526 173.03C328.032 173.122 328.653 173.214 329.389 173.306C330.125 173.352 330.815 173.375 331.459 173.375C333.023 173.375 334.449 173.145 335.737 172.685C337.071 172.225 338.198 171.512 339.118 170.546C340.084 169.58 340.82 168.338 341.326 166.82C341.878 165.256 342.154 163.393 342.154 161.231C342.154 157.091 341.188 153.986 339.256 151.916C337.324 149.8 334.748 148.742 331.528 148.742C330.884 148.742 330.217 148.765 329.527 148.811C328.883 148.857 328.216 148.926 327.526 149.018V173.03ZM331.39 183.104C330.608 183.104 329.711 183.081 328.699 183.035C327.687 182.989 326.629 182.897 325.525 182.759C324.467 182.621 323.386 182.437 322.282 182.207C321.224 182.023 320.235 181.747 319.315 181.379C316.785 180.413 315.52 178.734 315.52 176.342V144.119C315.52 143.153 315.773 142.417 316.279 141.911C316.831 141.359 317.567 140.922 318.487 140.6C320.465 139.956 322.558 139.542 324.766 139.358C326.974 139.128 328.952 139.013 330.7 139.013C334.288 139.013 337.531 139.45 340.429 140.324C343.373 141.198 345.88 142.555 347.95 144.395C350.066 146.189 351.699 148.466 352.849 151.226C353.999 153.986 354.574 157.252 354.574 161.024C354.574 164.704 354.022 167.924 352.918 170.684C351.814 173.398 350.227 175.698 348.157 177.584C346.133 179.424 343.695 180.804 340.843 181.724C337.991 182.644 334.84 183.104 331.39 183.104ZM372.475 146.603C372.475 144.625 373.05 143.061 374.2 141.911C375.35 140.761 376.914 140.186 378.892 140.186H401.662C401.984 140.692 402.26 141.359 402.49 142.187C402.766 143.015 402.904 143.889 402.904 144.809C402.904 146.557 402.513 147.799 401.731 148.535C400.995 149.271 400.006 149.639 398.764 149.639H384.205V156.056H399.73C400.052 156.562 400.328 157.229 400.558 158.057C400.834 158.839 400.972 159.69 400.972 160.61C400.972 162.358 400.604 163.6 399.868 164.336C399.132 165.072 398.143 165.44 396.901 165.44H384.205V172.685H401.938C402.26 173.191 402.536 173.858 402.766 174.686C403.042 175.514 403.18 176.388 403.18 177.308C403.18 179.056 402.789 180.321 402.007 181.103C401.271 181.839 400.282 182.207 399.04 182.207H378.892C376.914 182.207 375.35 181.632 374.2 180.482C373.05 179.332 372.475 177.768 372.475 175.79V146.603ZM446.324 180.62C445.68 181.172 444.668 181.655 443.288 182.069C441.954 182.483 440.482 182.69 438.872 182.69C436.94 182.69 435.284 182.414 433.904 181.862C432.524 181.264 431.581 180.459 431.075 179.447C430.569 178.389 429.948 177.032 429.212 175.376C428.476 173.674 427.694 171.788 426.866 169.718C426.084 167.648 425.256 165.463 424.382 163.163C423.554 160.817 422.749 158.448 421.967 156.056C421.185 153.664 420.449 151.318 419.759 149.018C419.069 146.718 418.471 144.556 417.965 142.532C418.609 141.888 419.529 141.313 420.725 140.807C421.967 140.255 423.278 139.979 424.658 139.979C426.36 139.979 427.74 140.347 428.798 141.083C429.902 141.773 430.707 143.084 431.213 145.016C432.455 149.524 433.697 153.848 434.939 157.988C436.227 162.082 437.561 166.36 438.941 170.822H439.355C440.597 166.498 441.862 161.783 443.15 156.677C444.484 151.571 445.749 146.488 446.945 141.428C447.773 141.014 448.647 140.669 449.567 140.393C450.533 140.117 451.614 139.979 452.81 139.979C454.512 139.979 455.961 140.37 457.157 141.152C458.353 141.888 458.951 143.13 458.951 144.878C458.951 145.89 458.698 147.362 458.192 149.294C457.732 151.226 457.111 153.411 456.329 155.849C455.593 158.241 454.742 160.748 453.776 163.37C452.856 165.992 451.913 168.476 450.947 170.822C450.027 173.122 449.153 175.169 448.325 176.963C447.497 178.711 446.83 179.93 446.324 180.62Z" fill="url(#paint0_linear_65_833)"/>
<path d="M230.93 221.681H301C241.268 332.874 132.142 318.554 85.046 297.494C57.4774 284.093 1.88076 237.763 0.0428516 159.652C-1.79505 81.5405 55.9458 32.1467 85.046 17.2137C202.672 -35.1666 278.026 44.3994 301 90.73H240.119C234.606 77.8646 217.911 70.8193 210.253 68.9048C202.595 66.9904 153.278 82.6891 136.737 82.6891C120.196 82.6891 118.541 97.074 110.317 107.96C93.0418 130.83 88.875 160.034 91.9382 174.585C49.6664 194.801 57.9684 219.884 77 235C94.2891 248.732 125.633 233.168 130.994 218.235C130.994 218.235 141.418 220.807 148.224 221.681C160.682 223.281 180.387 221.681 180.387 221.681C201.523 242.817 222.889 230.487 230.93 221.681Z" fill="url(#paint1_linear_65_833)"/>
<circle cx="95.3839" cy="210.194" r="13.7843" fill="#BCFF6B"/>
<line x1="198.965" y1="88.9656" x2="210.516" y2="88.765" stroke="#BCFF6B" stroke-width="4" stroke-linecap="round"/>
<defs>
<linearGradient id="paint0_linear_65_833" x1="132" y1="169" x2="461" y2="169" gradientUnits="userSpaceOnUse">
<stop stop-color="#35ACA7"/>
<stop offset="1" stop-color="#1D4580"/>
</linearGradient>
<linearGradient id="paint1_linear_65_833" x1="34" y1="63" x2="260" y2="271" gradientUnits="userSpaceOnUse">
<stop stop-color="#1A407E"/>
<stop offset="1" stop-color="#35ACA7"/>
</linearGradient>
</defs>
</svg>
